<svg width="1493" height="1117" viewBox="0 0 1493 1117" fill="none" xmlns="http://www.w3.org/2000/svg">
<circle cx="1458" cy="560" r="1147.5" stroke="white" stroke-width="3" stroke-dasharray="6 6"/>
<circle cx="1458" cy="560" r="1387.5" stroke="white" stroke-width="3" stroke-dasharray="6 6"/>
<circle cx="1458" cy="560" r="954.5" stroke="white" stroke-width="3" stroke-dasharray="6 6"/>
<circle cx="1458" cy="560" r="287.5" stroke="white" stroke-width="3" stroke-dasharray="6 6"/>
<circle cx="1458" cy="560" r="440.5" stroke="white" stroke-width="3" stroke-dasharray="6 6"/>
<circle cx="1458" cy="560" r="558.5" stroke="white" stroke-width="3" stroke-dasharray="6 6"/>
<circle cx="1458" cy="560" r="687.5" stroke="white" stroke-width="3" stroke-dasharray="6 6"/>
<circle cx="1436" cy="560" r="780.5" stroke="white" stroke-width="3" stroke-dasharray="6 6"/>
<path opacity="0.02" d="M2030.88 970.234C2038.48 959.639 2045.77 948.863 2052.77 937.877C2053.05 937.421 2053.32 936.952 2053.59 936.509C2060.02 926.358 2066.14 916.024 2072.05 905.547C2073.66 902.667 2075.19 899.735 2076.78 896.829C2081.25 888.62 2085.59 880.345 2089.73 871.966C2091.45 868.487 2093.12 864.994 2094.79 861.502C2098.66 853.344 2102.36 845.096 2105.93 836.795C2107.4 833.341 2108.9 829.914 2110.32 826.448C2114.11 817.222 2117.67 807.879 2121.04 798.483C2121.94 795.994 2122.93 793.544 2123.79 791.055C2128.03 778.897 2131.98 766.635 2135.55 754.243C2135.69 753.76 2135.8 753.278 2135.93 752.796C2139.24 741.211 2142.21 729.523 2144.93 717.768C2145.75 714.224 2146.43 710.64 2147.21 707.083C2149.1 698.274 2150.86 689.426 2152.41 680.526C2153.17 676.277 2153.82 672.016 2154.5 667.742C2155.83 659.272 2156.96 650.762 2157.99 642.24C2158.48 637.94 2159.01 633.653 2159.44 629.352C2160.35 620.165 2161.03 610.952 2161.57 601.713C2161.79 598.169 2162.09 594.637 2162.26 591.08C2162.82 578.257 2163.1 565.382 2162.97 552.469C2162.95 551.765 2162.9 551.061 2162.89 550.344C2162.72 538.265 2162.2 526.146 2161.4 514.014C2161.14 509.909 2160.7 505.791 2160.36 501.686C2159.61 492.864 2158.76 484.042 2157.68 475.207C2157.1 470.451 2156.41 465.707 2155.75 460.951C2154.55 452.585 2153.19 444.245 2151.7 435.879C2150.84 431.097 2149.96 426.327 2149 421.545C2147.21 412.71 2145.19 403.901 2143.06 395.079C2142.05 390.935 2141.15 386.791 2140.07 382.66C2136.71 369.811 2133.07 356.976 2128.95 344.179C2128.94 344.153 2128.94 344.127 2128.93 344.101C2106.57 274.736 2074.46 211.223 2034.61 154.602C2008.03 116.864 1978.02 82.1622 1945.17 50.8484C1920.51 27.3533 1894.27 5.76071 1866.67 -13.812C1848.26 -26.8562 1829.26 -39.0143 1809.74 -50.2211C1780.45 -67.0442 1749.97 -81.7564 1718.55 -94.2402C1571.95 -152.489 1404.98 -162.041 1243.12 -109.878C873.138 9.35727 669.882 405.934 789.123 775.9C908.363 1145.87 1304.97 1349.11 1674.96 1229.88C1823.76 1181.92 1945.53 1089.04 2030.27 971.146C2030.27 971.172 2030.28 971.172 2030.29 971.198C2030.46 970.885 2030.66 970.546 2030.88 970.234Z" fill="#FF6C22"/>
<path opacity="0.1" d="M1746.79 766.446C1750.61 761.114 1754.29 755.691 1757.81 750.163C1757.95 749.933 1758.08 749.697 1758.22 749.474C1761.46 744.366 1764.54 739.165 1767.51 733.893C1768.32 732.444 1769.09 730.968 1769.89 729.506C1772.14 725.374 1774.32 721.21 1776.41 716.993C1777.27 715.243 1778.11 713.485 1778.95 711.728C1780.9 707.622 1782.76 703.471 1784.56 699.294C1785.3 697.556 1786.05 695.832 1786.77 694.087C1788.68 689.444 1790.47 684.742 1792.17 680.014C1792.62 678.762 1793.12 677.529 1793.55 676.276C1795.68 670.158 1797.67 663.987 1799.47 657.751C1799.54 657.508 1799.59 657.265 1799.66 657.023C1801.32 651.193 1802.82 645.31 1804.19 639.395C1804.6 637.612 1804.94 635.808 1805.34 634.018C1806.29 629.585 1807.17 625.132 1807.95 620.653C1808.33 618.515 1808.66 616.371 1809 614.22C1809.67 609.957 1810.24 605.675 1810.76 601.386C1811.01 599.222 1811.27 597.065 1811.49 594.901C1811.95 590.278 1812.29 585.641 1812.56 580.992C1812.67 579.208 1812.82 577.431 1812.91 575.641C1813.19 569.188 1813.33 562.709 1813.26 556.21C1813.26 555.856 1813.23 555.502 1813.22 555.141C1813.14 549.062 1812.88 542.963 1812.48 536.858C1812.35 534.792 1812.12 532.72 1811.95 530.654C1811.57 526.215 1811.15 521.775 1810.6 517.329C1810.31 514.935 1809.97 512.548 1809.63 510.155C1809.03 505.945 1808.35 501.748 1807.59 497.538C1807.16 495.131 1806.72 492.731 1806.23 490.324C1805.34 485.878 1804.32 481.445 1803.24 477.005C1802.74 474.92 1802.29 472.834 1801.74 470.756C1800.05 464.29 1798.22 457.83 1796.15 451.39C1796.14 451.377 1796.14 451.364 1796.13 451.351C1784.88 416.444 1768.72 384.481 1748.67 355.988C1735.3 336.997 1720.19 319.533 1703.66 303.775C1691.25 291.951 1678.04 281.085 1664.15 271.235C1654.89 264.671 1645.33 258.552 1635.51 252.913C1620.76 244.447 1605.43 237.043 1589.61 230.761C1515.84 201.447 1431.81 196.64 1350.36 222.891C1164.17 282.895 1061.88 482.468 1121.89 668.65C1181.9 854.831 1381.49 957.113 1567.68 897.109C1642.56 872.977 1703.84 826.233 1746.48 766.905C1746.48 766.918 1746.49 766.918 1746.5 766.931C1746.58 766.774 1746.68 766.603 1746.79 766.446Z" fill="#FF6C22"/>
<path opacity="0.05" d="M1809.97 811.763C1814.63 805.261 1819.11 798.648 1823.4 791.906C1823.57 791.626 1823.74 791.338 1823.91 791.066C1827.85 784.836 1831.61 778.494 1835.23 772.065C1836.22 770.297 1837.16 768.498 1838.13 766.714C1840.88 761.676 1843.54 756.598 1846.08 751.455C1847.14 749.32 1848.16 747.177 1849.19 745.034C1851.56 740.027 1853.83 734.965 1856.02 729.871C1856.93 727.752 1857.85 725.648 1858.72 723.521C1861.05 717.859 1863.23 712.125 1865.3 706.359C1865.85 704.831 1866.46 703.328 1866.99 701.8C1869.59 694.339 1872.01 686.813 1874.2 679.208C1874.29 678.912 1874.35 678.616 1874.43 678.32C1876.47 671.211 1878.29 664.037 1879.96 656.824C1880.46 654.648 1880.88 652.449 1881.36 650.266C1882.52 644.86 1883.6 639.429 1884.55 633.967C1885.02 631.36 1885.42 628.745 1885.83 626.122C1886.65 620.924 1887.34 615.702 1887.97 610.471C1888.28 607.832 1888.6 605.201 1888.86 602.562C1889.42 596.924 1889.84 591.27 1890.17 585.6C1890.31 583.424 1890.49 581.257 1890.6 579.074C1890.94 571.205 1891.11 563.303 1891.03 555.378C1891.02 554.946 1890.99 554.514 1890.98 554.074C1890.88 546.661 1890.56 539.223 1890.07 531.778C1889.91 529.259 1889.64 526.732 1889.43 524.213C1888.97 518.798 1888.45 513.384 1887.78 507.962C1887.43 505.043 1887.01 502.132 1886.6 499.213C1885.86 494.079 1885.03 488.96 1884.11 483.826C1883.58 480.891 1883.05 477.964 1882.46 475.029C1881.36 469.607 1880.12 464.201 1878.81 458.787C1878.19 456.244 1877.64 453.7 1876.98 451.165C1874.91 443.28 1872.68 435.403 1870.16 427.549C1870.15 427.533 1870.15 427.517 1870.14 427.501C1856.42 384.932 1836.71 345.953 1812.25 311.205C1795.95 288.045 1777.53 266.748 1757.36 247.53C1742.23 233.111 1726.13 219.86 1709.19 207.848C1697.89 199.843 1686.23 192.381 1674.25 185.503C1656.27 175.179 1637.57 166.15 1618.29 158.489C1528.32 122.741 1425.85 116.879 1326.51 148.892C1099.45 222.067 974.713 465.448 1047.89 692.5C1121.07 919.55 1364.47 1044.28 1591.53 971.109C1682.86 941.679 1757.59 884.674 1809.59 812.323C1809.59 812.339 1809.6 812.339 1809.61 812.355C1809.71 812.163 1809.83 811.955 1809.97 811.763Z" fill="#FF6C22"/>
<path opacity="0.03" d="M1885.94 866.262C1891.61 858.353 1897.06 850.308 1902.28 842.107C1902.49 841.766 1902.69 841.416 1902.9 841.085C1907.69 833.507 1912.27 825.792 1916.67 817.97C1917.88 815.82 1919.02 813.631 1920.2 811.462C1923.54 805.333 1926.78 799.155 1929.87 792.9C1931.16 790.302 1932.4 787.695 1933.65 785.088C1936.54 778.998 1939.3 772.84 1941.97 766.643C1943.07 764.065 1944.19 761.506 1945.25 758.918C1948.08 752.031 1950.73 745.055 1953.25 738.041C1953.92 736.183 1954.66 734.354 1955.31 732.496C1958.47 723.419 1961.42 714.265 1964.08 705.013C1964.19 704.653 1964.27 704.293 1964.36 703.933C1966.84 695.285 1969.05 686.558 1971.09 677.783C1971.7 675.137 1972.21 672.462 1972.79 669.806C1974.2 663.229 1975.51 656.624 1976.67 649.979C1977.24 646.808 1977.72 643.626 1978.23 640.435C1979.22 634.112 1980.07 627.759 1980.83 621.397C1981.2 618.186 1981.59 614.986 1981.92 611.775C1982.6 604.917 1983.1 598.039 1983.51 591.141C1983.68 588.495 1983.9 585.859 1984.03 583.203C1984.44 573.63 1984.65 564.018 1984.55 554.377C1984.54 553.852 1984.5 553.327 1984.49 552.792C1984.37 543.773 1983.98 534.726 1983.38 525.669C1983.19 522.604 1982.86 519.53 1982.61 516.466C1982.04 509.879 1981.41 503.293 1980.6 496.697C1980.17 493.146 1979.66 489.605 1979.16 486.054C1978.27 479.809 1977.25 473.583 1976.14 467.337C1975.49 463.767 1974.84 460.206 1974.12 456.636C1972.79 450.04 1971.28 443.463 1969.69 436.877C1968.94 433.783 1968.27 430.69 1967.46 427.606C1964.95 418.014 1962.23 408.431 1959.16 398.878C1959.15 398.858 1959.15 398.839 1959.14 398.819C1942.44 347.035 1918.47 299.618 1888.72 257.348C1868.88 229.174 1846.48 203.267 1821.95 179.89C1803.54 162.349 1783.95 146.229 1763.35 131.617C1749.61 121.879 1735.42 112.802 1720.85 104.436C1698.98 91.8764 1676.22 80.893 1652.77 71.5731C1543.33 28.0869 1418.67 20.9559 1297.84 59.899C1021.62 148.914 869.88 444.981 958.899 721.182C1047.92 997.383 1344.01 1149.12 1620.22 1060.1C1731.32 1024.3 1822.22 954.957 1885.48 866.943C1885.48 866.963 1885.49 866.963 1885.5 866.982C1885.63 866.749 1885.77 866.496 1885.94 866.262Z" fill="#FF6C22"/>
<path opacity="0.1" d="M1678.57 717.87C1681.49 713.793 1684.3 709.646 1686.99 705.419C1687.1 705.243 1687.2 705.062 1687.31 704.892C1689.78 700.985 1692.14 697.009 1694.41 692.977C1695.03 691.869 1695.62 690.74 1696.23 689.622C1697.95 686.463 1699.62 683.278 1701.22 680.054C1701.88 678.715 1702.52 677.371 1703.16 676.027C1704.65 672.888 1706.07 669.713 1707.45 666.519C1708.02 665.19 1708.59 663.871 1709.14 662.537C1710.6 658.987 1711.97 655.391 1713.27 651.776C1713.61 650.818 1713.99 649.875 1714.32 648.917C1715.95 644.238 1717.47 639.519 1718.85 634.75C1718.9 634.565 1718.94 634.379 1718.99 634.194C1720.27 629.736 1721.41 625.237 1722.46 620.714C1722.77 619.35 1723.04 617.971 1723.34 616.602C1724.06 613.212 1724.74 609.807 1725.34 606.382C1725.63 604.747 1725.88 603.107 1726.14 601.462C1726.65 598.203 1727.09 594.928 1727.48 591.648C1727.67 589.994 1727.88 588.344 1728.04 586.689C1728.39 583.153 1728.65 579.608 1728.86 576.053C1728.95 574.688 1729.06 573.329 1729.13 571.96C1729.34 567.026 1729.45 562.071 1729.4 557.102C1729.39 556.831 1729.37 556.56 1729.37 556.284C1729.3 551.636 1729.1 546.972 1728.8 542.303C1728.7 540.723 1728.53 539.139 1728.4 537.559C1728.11 534.164 1727.78 530.769 1727.36 527.369C1727.14 525.539 1726.88 523.713 1726.62 521.883C1726.16 518.663 1725.64 515.454 1725.06 512.235C1724.73 510.394 1724.39 508.559 1724.02 506.718C1723.34 503.318 1722.56 499.928 1721.74 496.533C1721.35 494.939 1721 493.344 1720.59 491.754C1719.29 486.81 1717.9 481.87 1716.31 476.946C1716.31 476.936 1716.31 476.926 1716.3 476.916C1707.69 450.222 1695.34 425.78 1680 403.991C1669.78 389.468 1658.23 376.114 1645.58 364.063C1636.1 355.022 1626 346.712 1615.37 339.18C1608.29 334.16 1600.98 329.481 1593.47 325.169C1582.19 318.695 1570.46 313.033 1558.37 308.229C1501.96 285.813 1437.7 282.137 1375.42 302.211C1233.03 348.096 1154.82 500.711 1200.7 643.085C1246.59 785.459 1399.22 863.675 1541.6 817.79C1598.86 799.335 1645.72 763.59 1678.33 718.221C1678.33 718.231 1678.34 718.231 1678.34 718.241C1678.41 718.121 1678.48 717.991 1678.57 717.87Z" fill="#FF6C22"/>
<path opacity="0.1" d="M1641.09 690.621C1643.51 687.247 1645.83 683.816 1648.06 680.318C1648.15 680.173 1648.23 680.023 1648.32 679.882C1650.37 676.65 1652.32 673.36 1654.2 670.024C1654.71 669.107 1655.2 668.173 1655.7 667.248C1657.13 664.634 1658.51 661.999 1659.83 659.332C1660.38 658.224 1660.91 657.112 1661.44 656C1662.67 653.402 1663.85 650.776 1664.99 648.133C1665.45 647.033 1665.93 645.942 1666.38 644.838C1667.59 641.901 1668.72 638.926 1669.8 635.934C1670.08 635.142 1670.4 634.362 1670.67 633.569C1672.02 629.698 1673.28 625.794 1674.42 621.848C1674.46 621.694 1674.5 621.541 1674.54 621.387C1675.59 617.699 1676.54 613.977 1677.4 610.234C1677.67 609.106 1677.88 607.965 1678.13 606.832C1678.73 604.027 1679.29 601.21 1679.79 598.376C1680.03 597.023 1680.23 595.667 1680.45 594.306C1680.87 591.609 1681.23 588.899 1681.56 586.186C1681.72 584.816 1681.89 583.451 1682.02 582.082C1682.31 579.157 1682.53 576.223 1682.7 573.282C1682.77 572.153 1682.87 571.029 1682.92 569.896C1683.1 565.813 1683.19 561.714 1683.15 557.602C1683.14 557.378 1683.13 557.154 1683.12 556.926C1683.07 553.079 1682.9 549.221 1682.65 545.358C1682.57 544.051 1682.43 542.74 1682.32 541.433C1682.08 538.624 1681.81 535.815 1681.46 533.001C1681.28 531.487 1681.06 529.977 1680.85 528.462C1680.47 525.798 1680.03 523.143 1679.56 520.479C1679.28 518.956 1679.01 517.438 1678.7 515.915C1678.13 513.102 1677.49 510.297 1676.81 507.488C1676.49 506.169 1676.2 504.849 1675.86 503.534C1674.79 499.443 1673.63 495.356 1672.32 491.281C1672.31 491.273 1672.31 491.265 1672.31 491.257C1665.19 469.17 1654.96 448.947 1642.28 430.919C1633.82 418.903 1624.26 407.854 1613.8 397.883C1605.95 390.402 1597.59 383.527 1588.8 377.295C1582.94 373.142 1576.89 369.271 1570.68 365.702C1561.35 360.346 1551.65 355.661 1541.64 351.686C1494.96 333.14 1441.8 330.098 1390.26 346.707C1272.46 384.672 1207.74 510.944 1245.71 628.744C1283.67 746.543 1409.96 811.258 1527.76 773.293C1575.14 758.024 1613.91 728.449 1640.89 690.911C1640.89 690.919 1640.9 690.919 1640.9 690.928C1640.96 690.828 1641.02 690.72 1641.09 690.621Z" fill="#FF6C22"/>
<path opacity="0.1" d="M1616.31 672.848C1618.4 669.932 1620.41 666.968 1622.33 663.946C1622.41 663.825 1622.47 663.695 1622.56 663.569C1624.32 660.775 1626.01 657.933 1627.63 655.053C1628.08 654.258 1628.5 653.452 1628.93 652.657C1630.16 650.398 1631.36 648.119 1632.5 645.815C1632.97 644.858 1633.43 643.897 1633.89 642.936C1634.96 640.69 1635.97 638.427 1636.95 636.14C1637.36 635.191 1637.77 634.246 1638.16 633.293C1639.21 630.754 1640.18 628.183 1641.12 625.6C1641.36 624.915 1641.63 624.242 1641.87 623.556C1643.03 620.215 1644.12 616.841 1645.1 613.43C1645.14 613.297 1645.17 613.163 1645.21 613.033C1646.12 609.846 1646.94 606.63 1647.68 603.398C1647.91 602.42 1648.1 601.439 1648.31 600.454C1648.83 598.029 1649.31 595.6 1649.74 593.15C1649.95 591.978 1650.14 590.806 1650.32 589.634C1650.68 587.303 1651 584.967 1651.27 582.619C1651.41 581.439 1651.56 580.259 1651.68 579.075C1651.93 576.552 1652.11 574.018 1652.27 571.475C1652.32 570.498 1652.41 569.529 1652.45 568.547C1652.61 565.019 1652.69 561.479 1652.65 557.927C1652.65 557.732 1652.63 557.537 1652.63 557.343C1652.58 554.021 1652.44 550.688 1652.22 547.35C1652.14 546.219 1652.02 545.088 1651.93 543.96C1651.72 541.535 1651.49 539.106 1651.19 536.677C1651.03 535.367 1650.84 534.061 1650.66 532.752C1650.33 530.452 1649.95 528.157 1649.54 525.858C1649.3 524.544 1649.07 523.23 1648.8 521.912C1648.31 519.483 1647.75 517.058 1647.17 514.633C1646.89 513.493 1646.64 512.354 1646.34 511.218C1645.42 507.682 1644.41 504.15 1643.28 500.63C1643.28 500.63 1643.28 500.618 1643.28 500.61C1637.13 481.53 1628.29 464.056 1617.33 448.484C1610.02 438.103 1601.77 428.561 1592.73 419.943C1585.95 413.479 1578.73 407.538 1571.13 402.157C1566.07 398.568 1560.85 395.223 1555.48 392.137C1547.42 387.51 1539.03 383.462 1530.39 380.028C1490.07 364.005 1444.14 361.378 1399.61 375.725C1297.84 408.528 1241.93 517.622 1274.73 619.392C1307.53 721.162 1416.62 777.075 1518.4 744.272C1559.33 731.081 1592.82 705.529 1616.13 673.095C1616.13 673.095 1616.14 673.103 1616.14 673.111C1616.2 673.022 1616.25 672.929 1616.31 672.848Z" fill="#FF6C22"/>
<path opacity="0.1" d="M1589.48 653.602C1591.2 651.183 1592.87 648.725 1594.47 646.22C1594.53 646.115 1594.59 646.01 1594.66 645.905C1596.12 643.586 1597.52 641.229 1598.87 638.841C1599.24 638.183 1599.59 637.514 1599.94 636.853C1600.97 634.978 1601.96 633.092 1602.9 631.178C1603.3 630.385 1603.67 629.591 1604.06 628.79C1604.94 626.927 1605.78 625.048 1606.59 623.154C1606.93 622.368 1607.27 621.586 1607.6 620.792C1608.46 618.684 1609.27 616.557 1610.05 614.413C1610.25 613.845 1610.47 613.285 1610.67 612.717C1611.64 609.944 1612.54 607.147 1613.35 604.319C1613.38 604.211 1613.41 604.098 1613.44 603.989C1614.2 601.348 1614.87 598.679 1615.5 595.995C1615.68 595.186 1615.84 594.37 1616.02 593.557C1616.44 591.546 1616.85 589.527 1617.21 587.496C1617.37 586.528 1617.53 585.555 1617.68 584.583C1617.98 582.65 1618.25 580.709 1618.48 578.76C1618.59 577.784 1618.71 576.803 1618.81 575.819C1619.02 573.727 1619.17 571.622 1619.3 569.514C1619.35 568.705 1619.41 567.9 1619.45 567.087C1619.58 564.158 1619.65 561.225 1619.61 558.277C1619.61 558.113 1619.6 557.954 1619.6 557.79C1619.56 555.037 1619.44 552.271 1619.25 549.501C1619.19 548.564 1619.09 547.627 1619.02 546.689C1618.85 544.678 1618.65 542.663 1618.41 540.648C1618.27 539.563 1618.12 538.478 1617.97 537.393C1617.69 535.487 1617.39 533.581 1617.04 531.675C1616.84 530.586 1616.64 529.493 1616.43 528.404C1616.02 526.393 1615.55 524.378 1615.07 522.367C1614.84 521.421 1614.64 520.476 1614.39 519.531C1613.62 516.602 1612.79 513.673 1611.85 510.752L1611.84 510.736C1606.74 494.909 1599.42 480.42 1590.33 467.502C1584.26 458.89 1577.41 450.978 1569.92 443.833C1564.29 438.473 1558.31 433.545 1552.01 429.083C1547.81 426.104 1543.47 423.33 1539.01 420.775C1532.33 416.936 1525.38 413.579 1518.21 410.731C1484.76 397.444 1446.67 395.262 1409.74 407.165C1325.33 434.369 1278.96 524.852 1306.16 609.259C1333.37 693.67 1423.85 740.04 1508.26 712.835C1542.21 701.893 1569.99 680.702 1589.32 653.801L1589.33 653.812C1589.38 653.746 1589.43 653.672 1589.48 653.602Z" fill="#FF6C22"/>
<g filter="url(#filter0_f_166_292)">
<path d="M1649.55 498.248C1683.51 603.629 1625.62 716.582 1520.24 750.547C1414.87 784.513 1301.91 726.619 1267.94 621.244C1233.98 515.863 1291.87 402.909 1397.25 368.944C1502.63 334.979 1615.59 392.872 1649.55 498.248Z" fill="#FF6C22" fill-opacity="0.3"/>
</g>
<path d="M1596.11 515.639C1620.54 591.436 1578.9 672.68 1503.11 697.109C1427.31 721.539 1346.07 679.899 1321.64 604.106C1297.21 528.309 1338.84 447.066 1414.64 422.636C1490.44 398.206 1571.68 439.847 1596.11 515.639Z" fill="#FF6C22"/>
<circle cx="3" cy="1085" r="3" fill="white"/>
<path opacity="0.1" d="M439.697 227.3C440.517 226.157 441.305 224.994 442.06 223.808C442.089 223.759 442.119 223.708 442.148 223.661C442.842 222.565 443.503 221.45 444.14 220.319C444.314 220.008 444.479 219.692 444.651 219.378C445.133 218.492 445.601 217.599 446.048 216.695C446.234 216.319 446.414 215.942 446.594 215.565C447.012 214.685 447.411 213.795 447.797 212.899C447.956 212.526 448.117 212.156 448.271 211.782C448.68 210.786 449.064 209.778 449.428 208.764C449.525 208.495 449.632 208.231 449.725 207.962C450.182 206.65 450.608 205.326 450.994 203.989C451.009 203.937 451.02 203.885 451.034 203.833C451.392 202.582 451.712 201.321 452.006 200.052C452.095 199.67 452.168 199.283 452.252 198.899C452.456 197.948 452.646 196.993 452.813 196.033C452.895 195.574 452.965 195.114 453.038 194.653C453.182 193.739 453.304 192.82 453.415 191.901C453.469 191.437 453.525 190.974 453.572 190.51C453.67 189.518 453.743 188.524 453.802 187.527C453.826 187.144 453.858 186.763 453.877 186.379C453.937 184.995 453.967 183.606 453.953 182.212C453.951 182.136 453.946 182.06 453.944 181.982C453.926 180.679 453.87 179.371 453.784 178.061C453.756 177.618 453.708 177.174 453.671 176.731C453.59 175.779 453.498 174.827 453.382 173.873C453.32 173.36 453.245 172.848 453.173 172.334C453.044 171.431 452.898 170.531 452.736 169.628C452.643 169.112 452.549 168.598 452.445 168.081C452.252 167.128 452.034 166.177 451.804 165.225C451.695 164.778 451.598 164.33 451.482 163.885C451.119 162.498 450.726 161.112 450.282 159.731C450.28 159.729 450.28 159.726 450.279 159.723C447.866 152.237 444.4 145.382 440.099 139.271C437.232 135.198 433.993 131.452 430.447 128.073C427.786 125.537 424.953 123.206 421.975 121.094C419.989 119.686 417.938 118.374 415.831 117.164C412.67 115.349 409.38 113.761 405.989 112.413C390.168 106.127 372.148 105.096 354.68 110.726C314.75 123.595 292.814 166.396 305.683 206.326C318.551 246.256 361.355 268.192 401.285 255.324C417.345 250.148 430.486 240.123 439.631 227.399C439.631 227.402 439.632 227.402 439.634 227.405C439.652 227.371 439.673 227.334 439.697 227.3Z" fill="#E3A934"/>
<path opacity="0.1" d="M432.535 222.164C433.26 221.153 433.957 220.125 434.623 219.077C434.649 219.035 434.673 218.99 434.701 218.946C435.314 217.977 435.9 216.991 436.462 215.993C436.617 215.717 436.763 215.437 436.914 215.162C437.34 214.378 437.755 213.588 438.15 212.789C438.313 212.457 438.473 212.124 438.632 211.79C439.002 211.011 439.355 210.226 439.694 209.433C439.836 209.104 439.978 208.776 440.113 208.446C440.476 207.565 440.814 206.674 441.138 205.778C441.223 205.54 441.317 205.307 441.4 205.069C441.804 203.91 442.181 202.74 442.521 201.557C442.535 201.511 442.545 201.464 442.558 201.419C442.874 200.314 443.157 199.199 443.416 198.078C443.494 197.739 443.56 197.398 443.632 197.057C443.814 196.216 443.981 195.373 444.13 194.524C444.202 194.117 444.266 193.711 444.33 193.304C444.456 192.496 444.566 191.685 444.662 190.871C444.709 190.462 444.76 190.053 444.801 189.642C444.889 188.767 444.953 187.888 445.006 187.006C445.026 186.667 445.055 186.331 445.071 185.991C445.124 184.767 445.152 183.539 445.138 182.307C445.138 182.24 445.133 182.172 445.131 182.105C445.114 180.953 445.065 179.797 444.988 178.639C444.961 178.247 444.92 177.855 444.888 177.464C444.818 176.623 444.738 175.78 444.632 174.938C444.577 174.483 444.513 174.031 444.448 173.576C444.334 172.779 444.203 171.983 444.061 171.185C443.978 170.73 443.897 170.274 443.804 169.817C443.634 168.974 443.439 168.133 443.237 167.292C443.141 166.897 443.054 166.502 442.951 166.108C442.631 164.882 442.282 163.657 441.89 162.436C441.89 162.436 441.888 162.432 441.888 162.429C439.755 155.812 436.691 149.751 432.89 144.351C430.354 140.75 427.492 137.441 424.357 134.452C422.005 132.21 419.502 130.15 416.868 128.284C415.113 127.039 413.3 125.879 411.438 124.808C408.643 123.204 405.734 121.8 402.737 120.609C388.752 115.052 372.823 114.141 357.381 119.117C322.084 130.493 302.694 168.329 314.069 203.625C325.446 238.92 363.281 258.312 398.577 246.936C412.774 242.361 424.389 233.499 432.474 222.25C432.474 222.25 432.476 222.253 432.476 222.256C432.496 222.225 432.514 222.192 432.535 222.164Z" fill="#E3A934"/>
<path opacity="0.1" d="M425.153 216.867C425.778 215.993 426.381 215.104 426.958 214.198C426.982 214.16 427.003 214.122 427.027 214.084C427.557 213.246 428.06 212.394 428.548 211.53C428.682 211.292 428.809 211.05 428.938 210.811C429.308 210.133 429.665 209.451 430.007 208.759C430.15 208.472 430.287 208.186 430.425 207.896C430.744 207.222 431.049 206.543 431.342 205.858C431.464 205.574 431.588 205.291 431.706 205.004C432.018 204.242 432.311 203.473 432.59 202.698C432.665 202.492 432.745 202.29 432.817 202.084C433.166 201.082 433.492 200.07 433.786 199.048C433.797 199.009 433.807 198.968 433.818 198.928C434.091 197.973 434.336 197.009 434.561 196.038C434.628 195.746 434.686 195.45 434.749 195.156C434.904 194.429 435.05 193.699 435.18 192.965C435.24 192.615 435.296 192.263 435.351 191.912C435.46 191.213 435.555 190.511 435.638 189.806C435.679 189.453 435.724 189.099 435.759 188.743C435.834 187.986 435.89 187.226 435.935 186.463C435.953 186.171 435.977 185.88 435.991 185.586C436.038 184.527 436.062 183.466 436.049 182.4C436.049 182.341 436.043 182.283 436.043 182.224C436.029 181.229 435.987 180.229 435.92 179.227C435.897 178.888 435.862 178.549 435.834 178.21C435.773 177.483 435.702 176.755 435.614 176.026C435.565 175.634 435.51 175.241 435.454 174.849C435.356 174.16 435.244 173.471 435.119 172.782C435.048 172.388 434.976 171.993 434.897 171.599C434.751 170.872 434.582 170.143 434.406 169.416C434.323 169.074 434.25 168.732 434.16 168.391C433.883 167.332 433.582 166.273 433.242 165.216L433.24 165.211C431.396 159.488 428.748 154.249 425.46 149.578C423.267 146.464 420.792 143.604 418.082 141.02C416.048 139.082 413.884 137.3 411.605 135.687C410.088 134.61 408.519 133.607 406.908 132.683C404.491 131.295 401.978 130.081 399.386 129.051C387.292 124.247 373.519 123.458 360.166 127.762C329.647 137.598 312.879 170.315 322.716 200.834C332.553 231.355 365.269 248.121 395.788 238.285C408.064 234.328 418.107 226.666 425.097 216.939L425.1 216.943C425.118 216.919 425.135 216.893 425.153 216.867Z" fill="#E3A934"/>
<path d="M423.162 168.461C431.205 193.417 417.495 220.166 392.541 228.209C367.587 236.253 340.837 222.543 332.793 197.588C324.75 172.633 338.458 145.884 363.415 137.84C388.37 129.797 415.12 143.507 423.162 168.461Z" fill="#E3A934"/>
<path d="M384.306 144.057C385.011 146.239 383.811 148.58 381.629 149.283L365.27 154.556C362.751 155.367 361.368 158.069 362.179 160.589C362.991 163.11 365.692 164.494 368.213 163.682L392.95 155.709C395.483 154.893 398.196 156.284 399.012 158.816C399.828 161.349 398.437 164.062 395.905 164.879L378.495 170.491C376.214 171.225 374.961 173.67 375.696 175.95C376.43 178.232 378.876 179.483 381.157 178.749L393.084 174.905C395.171 174.232 397.409 175.379 398.082 177.466C398.755 179.554 397.608 181.791 395.521 182.463L378.56 187.93C376.111 188.719 374.765 191.346 375.554 193.795C376.343 196.245 378.969 197.591 381.419 196.802L403.861 189.569C406.202 188.815 408.709 190.1 409.463 192.441C410.218 194.781 408.932 197.289 406.593 198.044L399.715 200.26C397.651 200.926 396.518 203.138 397.182 205.201C397.848 207.264 400.06 208.398 402.123 207.733L407.32 206.058C411.157 204.821 415.268 206.928 416.505 210.765C425 198.944 427.968 183.385 423.159 168.465C415.116 143.511 388.367 129.801 363.413 137.845C364.796 142.141 369.402 144.501 373.698 143.117L379.077 141.383C381.263 140.674 383.603 141.874 384.306 144.057Z" fill="#E06A29"/>
<path opacity="0.1" d="M533.962 939.848C533.115 939.249 532.285 938.629 531.473 937.985C531.441 937.958 531.408 937.93 531.376 937.904C530.628 937.308 529.898 936.69 529.182 936.056C528.985 935.882 528.794 935.701 528.599 935.524C528.049 935.023 527.507 934.514 526.977 933.992C526.757 933.775 526.541 933.556 526.324 933.337C525.821 932.824 525.327 932.3 524.843 931.769C524.642 931.548 524.44 931.329 524.243 931.106C523.717 930.511 523.207 929.901 522.708 929.282C522.576 929.118 522.437 928.96 522.308 928.795C521.672 927.991 521.056 927.172 520.465 926.333C520.441 926.301 520.421 926.267 520.399 926.234C519.848 925.45 519.32 924.648 518.809 923.835C518.655 923.59 518.511 923.338 518.359 923.091C517.988 922.478 517.625 921.858 517.276 921.229C517.109 920.93 516.949 920.626 516.787 920.322C516.466 919.72 516.159 919.11 515.86 918.496C515.71 918.185 515.559 917.877 515.415 917.564C515.107 916.897 514.816 916.222 514.534 915.542C514.425 915.281 514.311 915.023 514.205 914.76C513.829 913.811 513.473 912.85 513.147 911.875C513.129 911.822 513.115 911.768 513.097 911.713C512.795 910.801 512.519 909.876 512.262 908.943C512.175 908.627 512.101 908.306 512.02 907.989C511.847 907.306 511.68 906.62 511.532 905.928C511.451 905.555 511.379 905.18 511.305 904.805C511.177 904.145 511.062 903.483 510.957 902.814C510.897 902.432 510.838 902.051 510.786 901.666C510.69 900.955 510.613 900.24 510.544 899.521C510.511 899.184 510.471 898.849 510.444 898.51C510.363 897.456 510.302 896.396 510.278 895.327C510.278 895.324 510.277 895.322 510.278 895.32C510.152 889.522 510.912 883.909 512.433 878.613C513.448 875.084 514.801 871.692 516.455 868.482C517.697 866.073 519.108 863.765 520.674 861.575C521.717 860.114 522.829 858.705 524.005 857.354C525.77 855.326 527.678 853.425 529.716 851.668C539.221 843.469 551.527 838.401 565.056 838.107C595.982 837.435 621.597 861.961 622.269 892.887C622.942 923.813 598.415 949.428 567.489 950.1C555.05 950.371 543.474 946.558 534.032 939.901C534.033 939.903 534.032 939.903 534.031 939.905C534.01 939.886 533.987 939.866 533.962 939.848Z" fill="#38C0AC"/>
<path opacity="0.1" d="M537.712 934.541C536.963 934.011 536.229 933.463 535.513 932.894C535.484 932.871 535.456 932.845 535.426 932.822C534.765 932.295 534.119 931.749 533.486 931.189C533.312 931.034 533.143 930.875 532.971 930.719C532.485 930.276 532.005 929.825 531.537 929.364C531.343 929.172 531.151 928.979 530.96 928.785C530.514 928.331 530.079 927.87 529.651 927.399C529.473 927.204 529.295 927.01 529.121 926.812C528.656 926.286 528.205 925.747 527.763 925.201C527.646 925.056 527.524 924.916 527.409 924.77C526.848 924.06 526.303 923.336 525.781 922.594C525.76 922.565 525.742 922.535 525.722 922.507C525.235 921.813 524.768 921.104 524.318 920.386C524.181 920.169 524.053 919.947 523.92 919.727C523.591 919.184 523.271 918.638 522.962 918.082C522.814 917.816 522.671 917.549 522.528 917.281C522.245 916.748 521.973 916.21 521.71 915.666C521.578 915.392 521.444 915.119 521.316 914.843C521.043 914.255 520.787 913.658 520.537 913.056C520.441 912.825 520.34 912.598 520.247 912.364C519.914 911.525 519.598 910.676 519.311 909.814C519.294 909.767 519.282 909.719 519.267 909.671C519 908.865 518.756 908.047 518.53 907.222C518.454 906.942 518.388 906.659 518.316 906.379C518.162 905.776 518.014 905.17 517.884 904.557C517.813 904.228 517.749 903.896 517.684 903.564C517.571 902.981 517.47 902.395 517.377 901.805C517.324 901.468 517.271 901.131 517.226 900.79C517.141 900.162 517.073 899.529 517.011 898.894C516.982 898.596 516.948 898.299 516.924 898C516.852 897.068 516.799 896.13 516.778 895.185C516.778 895.185 516.778 895.182 516.777 895.18C516.666 890.055 517.337 885.093 518.682 880.413C519.58 877.292 520.775 874.295 522.238 871.457C523.335 869.327 524.582 867.287 525.967 865.351C526.889 864.06 527.872 862.814 528.911 861.619C530.471 859.826 532.159 858.146 533.959 856.593C542.362 849.346 553.24 844.866 565.199 844.605C592.537 844.012 615.18 865.692 615.774 893.029C616.368 920.366 594.688 943.009 567.35 943.603C556.355 943.842 546.123 940.471 537.776 934.586C537.776 934.586 537.774 934.588 537.775 934.59C537.754 934.574 537.733 934.555 537.712 934.541Z" fill="#38C0AC"/>
<path opacity="0.1" d="M541.577 929.069C540.93 928.61 540.296 928.136 539.675 927.644C539.649 927.624 539.625 927.602 539.6 927.582C539.028 927.126 538.471 926.653 537.923 926.17C537.772 926.036 537.626 925.898 537.478 925.763C537.057 925.38 536.643 924.991 536.238 924.591C536.069 924.426 535.904 924.259 535.739 924.09C535.353 923.698 534.977 923.299 534.608 922.892C534.454 922.724 534.299 922.556 534.148 922.385C533.746 921.929 533.357 921.464 532.975 920.992C532.873 920.867 532.769 920.745 532.669 920.619C532.184 920.005 531.713 919.379 531.261 918.737C531.244 918.713 531.227 918.687 531.21 918.662C530.789 918.062 530.386 917.449 529.995 916.827C529.877 916.64 529.765 916.448 529.65 916.259C529.367 915.789 529.089 915.316 528.822 914.836C528.695 914.606 528.571 914.375 528.448 914.143C528.204 913.682 527.968 913.217 527.74 912.746C527.626 912.51 527.509 912.273 527.399 912.034C527.164 911.525 526.941 911.008 526.726 910.488C526.643 910.289 526.556 910.092 526.475 909.89C526.187 909.164 525.914 908.431 525.666 907.685C525.652 907.644 525.642 907.602 525.627 907.561C525.397 906.864 525.185 906.157 524.99 905.443C524.924 905.201 524.867 904.957 524.804 904.714C524.671 904.193 524.545 903.668 524.43 903.139C524.37 902.854 524.313 902.567 524.258 902.28C524.16 901.776 524.071 901.269 523.992 900.759C523.947 900.467 523.901 900.175 523.861 899.881C523.788 899.339 523.729 898.791 523.676 898.242C523.652 897.984 523.62 897.728 523.6 897.468C523.538 896.664 523.492 895.853 523.474 895.035L523.473 895.031C523.377 890.598 523.957 886.309 525.121 882.261C525.897 879.563 526.931 876.972 528.196 874.518C529.145 872.677 530.223 870.913 531.421 869.239C532.218 868.122 533.068 867.045 533.968 866.012C535.317 864.462 536.775 863.009 538.332 861.666C545.598 855.4 555.004 851.526 565.346 851.301C588.984 850.787 608.563 869.534 609.076 893.172C609.59 916.811 590.843 936.389 567.205 936.902C557.698 937.109 548.851 934.195 541.633 929.105L541.632 929.109C541.614 929.096 541.596 929.082 541.577 929.069Z" fill="#38C0AC"/>
<path d="M531.28 894.863C531.7 914.191 547.708 929.518 567.036 929.099C586.363 928.679 601.691 912.67 601.272 893.343C600.852 874.014 584.844 858.687 565.515 859.107C546.187 859.527 530.859 875.535 531.28 894.863Z" fill="#38C1AC"/>
<path d="M552.46 868.481C552.496 870.172 553.897 871.513 555.587 871.476L568.257 871.201C570.208 871.158 571.824 872.707 571.867 874.658C571.91 876.61 570.362 878.227 568.41 878.269L549.25 878.686C547.289 878.729 545.734 880.353 545.777 882.313C545.82 884.275 547.444 885.83 549.405 885.788L562.89 885.495C564.656 885.456 566.12 886.857 566.157 888.623C566.197 890.39 564.795 891.852 563.028 891.892L553.791 892.092C552.174 892.127 550.892 893.466 550.927 895.083C550.962 896.7 552.301 897.982 553.917 897.947L567.054 897.661C568.951 897.62 570.522 899.125 570.564 901.022C570.605 902.919 569.101 904.491 567.203 904.532L549.822 904.91C548.009 904.95 546.572 906.451 546.612 908.263C546.651 910.076 548.153 911.512 549.964 911.474L555.291 911.358C556.89 911.323 558.213 912.591 558.248 914.189C558.283 915.787 557.015 917.111 555.417 917.146L551.392 917.233C548.421 917.298 546.065 919.758 546.129 922.73C537.357 916.544 531.534 906.42 531.283 894.865C530.863 875.537 546.19 859.529 565.518 859.109C565.591 862.437 562.951 865.193 559.625 865.266L555.458 865.356C553.764 865.39 552.423 866.79 552.46 868.481Z" fill="#7C3693"/>
<path opacity="0.1" d="M998.212 703.692C997.386 703.064 996.579 702.415 995.789 701.743C995.758 701.715 995.726 701.686 995.695 701.659C994.968 701.037 994.261 700.394 993.566 699.736C993.376 699.554 993.191 699.367 993.003 699.183C992.47 698.664 991.947 698.136 991.435 697.595C991.223 697.371 991.014 697.144 990.806 696.918C990.32 696.388 989.846 695.847 989.38 695.3C989.187 695.071 988.993 694.846 988.804 694.615C988.299 694.002 987.81 693.375 987.333 692.739C987.207 692.571 987.074 692.408 986.95 692.239C986.344 691.413 985.756 690.573 985.194 689.714C985.172 689.681 985.153 689.647 985.132 689.613C984.609 688.809 984.109 687.99 983.627 687.16C983.482 686.909 983.346 686.653 983.203 686.4C982.853 685.774 982.512 685.143 982.186 684.502C982.029 684.197 981.88 683.888 981.728 683.579C981.429 682.965 981.144 682.345 980.866 681.721C980.727 681.405 980.587 681.091 980.454 680.774C980.17 680.097 979.902 679.412 979.644 678.722C979.545 678.458 979.439 678.196 979.343 677.929C979 676.967 978.678 675.994 978.386 675.009C978.37 674.955 978.358 674.901 978.342 674.846C978.072 673.923 977.828 672.989 977.604 672.048C977.528 671.729 977.465 671.406 977.395 671.086C977.246 670.397 977.104 669.706 976.979 669.009C976.911 668.634 976.853 668.257 976.792 667.879C976.687 667.215 976.595 666.549 976.513 665.878C976.467 665.494 976.422 665.111 976.383 664.724C976.312 664.01 976.259 663.293 976.215 662.572C976.195 662.233 976.166 661.897 976.152 661.558C976.107 660.502 976.083 659.44 976.096 658.371C976.097 658.368 976.096 658.366 976.096 658.364C976.173 652.565 977.129 646.982 978.834 641.743C979.971 638.251 981.442 634.909 983.207 631.758C984.532 629.394 986.023 627.137 987.664 625.002C988.758 623.579 989.919 622.21 991.141 620.9C992.975 618.935 994.949 617.103 997.047 615.418C1006.83 607.555 1019.31 602.92 1032.84 603.099C1063.77 603.507 1088.51 628.912 1088.1 659.843C1087.7 690.773 1062.29 715.516 1031.36 715.108C1018.92 714.945 1007.48 710.73 998.28 703.747C998.28 703.749 998.279 703.749 998.279 703.752C998.259 703.732 998.236 703.711 998.212 703.692Z" fill="#38C04C"/>
<path opacity="0.1" d="M1002.14 698.519C1001.41 697.963 1000.7 697.39 1000 696.796C999.976 696.772 999.949 696.746 999.92 696.721C999.278 696.171 998.652 695.603 998.039 695.021C997.87 694.861 997.706 694.695 997.54 694.534C997.07 694.074 996.606 693.607 996.154 693.13C995.967 692.931 995.782 692.731 995.598 692.531C995.168 692.062 994.749 691.585 994.338 691.1C994.167 690.899 993.995 690.699 993.829 690.495C993.382 689.953 992.951 689.398 992.527 688.837C992.416 688.688 992.299 688.544 992.189 688.394C991.653 687.665 991.134 686.922 990.638 686.163C990.618 686.133 990.601 686.102 990.582 686.073C990.119 685.363 989.678 684.638 989.252 683.905C989.123 683.683 989.003 683.457 988.878 683.232C988.568 682.679 988.267 682.121 987.978 681.555C987.839 681.284 987.706 681.012 987.573 680.739C987.308 680.197 987.055 679.649 986.811 679.096C986.689 678.818 986.564 678.541 986.446 678.26C986.194 677.663 985.959 677.057 985.73 676.447C985.643 676.213 985.549 675.982 985.464 675.746C985.161 674.895 984.875 674.036 984.618 673.165C984.603 673.117 984.592 673.068 984.579 673.02C984.341 672.205 984.125 671.38 983.928 670.547C983.862 670.265 983.805 669.98 983.743 669.697C983.611 669.089 983.484 668.478 983.376 667.861C983.316 667.529 983.263 667.196 983.211 666.862C983.118 666.275 983.037 665.686 982.964 665.093C982.924 664.754 982.883 664.415 982.849 664.073C982.786 663.442 982.741 662.808 982.701 662.171C982.683 661.872 982.658 661.574 982.645 661.274C982.605 660.341 982.585 659.402 982.597 658.456C982.597 658.456 982.597 658.453 982.596 658.451C982.665 653.325 983.509 648.39 985.016 643.759C986.022 640.672 987.322 637.719 988.883 634.933C990.053 632.843 991.371 630.848 992.822 628.961C993.789 627.703 994.815 626.492 995.895 625.334C997.517 623.597 999.262 621.977 1001.12 620.488C1009.77 613.538 1020.79 609.441 1032.76 609.598C1060.1 609.959 1081.97 632.417 1081.61 659.758C1081.25 687.099 1058.79 708.971 1031.45 708.61C1020.45 708.465 1010.34 704.739 1002.21 698.566C1002.21 698.566 1002.21 698.568 1002.21 698.57C1002.19 698.553 1002.17 698.534 1002.14 698.519Z" fill="#38C04C"/>
<path opacity="0.1" d="M1006.2 693.185C1005.57 692.704 1004.95 692.208 1004.35 691.695C1004.32 691.674 1004.3 691.651 1004.27 691.63C1003.72 691.154 1003.18 690.663 1002.65 690.16C1002.5 690.022 1002.36 689.878 1002.22 689.738C1001.81 689.341 1001.41 688.937 1001.02 688.524C1000.86 688.353 1000.7 688.18 1000.54 688.006C1000.17 687.6 999.804 687.188 999.449 686.769C999.301 686.595 999.153 686.423 999.007 686.246C998.622 685.777 998.249 685.298 997.883 684.812C997.786 684.684 997.686 684.559 997.591 684.429C997.127 683.798 996.678 683.157 996.249 682.5C996.233 682.474 996.217 682.448 996.2 682.423C995.801 681.809 995.419 681.182 995.05 680.547C994.939 680.355 994.835 680.16 994.726 679.966C994.459 679.487 994.198 679.005 993.948 678.515C993.829 678.282 993.713 678.046 993.598 677.81C993.37 677.341 993.151 676.867 992.939 676.389C992.834 676.149 992.725 675.909 992.623 675.666C992.407 675.149 992.202 674.625 992.005 674.097C991.929 673.895 991.849 673.695 991.775 673.491C991.513 672.755 991.266 672.013 991.043 671.259C991.031 671.217 991.022 671.175 991.009 671.133C990.803 670.429 990.616 669.715 990.446 668.994C990.389 668.751 990.34 668.504 990.286 668.259C990.171 667.734 990.064 667.205 989.967 666.672C989.917 666.385 989.87 666.097 989.825 665.808C989.745 665.301 989.674 664.791 989.612 664.279C989.577 663.985 989.542 663.691 989.512 663.397C989.458 662.853 989.419 662.303 989.385 661.752C989.369 661.493 989.346 661.236 989.336 660.976C989.301 660.17 989.284 659.358 989.294 658.54L989.294 658.536C989.352 654.103 990.082 649.836 991.386 645.832C992.256 643.162 993.38 640.609 994.73 638.2C995.742 636.393 996.881 634.668 998.137 633.037C998.973 631.949 999.86 630.902 1000.8 629.901C1002.2 628.399 1003.71 626.998 1005.31 625.71C1012.79 619.701 1022.32 616.158 1032.67 616.294C1056.31 616.607 1075.22 636.025 1074.91 659.667C1074.6 683.309 1055.18 702.221 1031.54 701.909C1022.03 701.783 1013.29 698.562 1006.25 693.223L1006.25 693.227C1006.23 693.214 1006.22 693.199 1006.2 693.185Z" fill="#38C04C"/>
<path d="M997.102 658.64C996.847 677.972 1012.31 693.848 1031.64 694.104C1050.97 694.359 1066.85 678.895 1067.1 659.565C1067.36 640.234 1051.9 624.357 1032.56 624.102C1013.23 623.846 997.356 639.31 997.102 658.64Z" fill="#38C04C"/>
<path d="M1019.19 633.014C1019.17 634.705 1020.52 636.094 1022.21 636.116L1034.88 636.284C1036.83 636.309 1038.4 637.913 1038.37 639.865C1038.34 641.817 1036.74 643.379 1034.79 643.354L1015.63 643.101C1013.66 643.075 1012.05 644.644 1012.03 646.605C1012 648.567 1013.57 650.177 1015.53 650.204L1029.02 650.382C1030.79 650.405 1032.2 651.856 1032.18 653.623C1032.15 655.389 1030.7 656.802 1028.93 656.779L1019.7 656.658C1018.08 656.636 1016.75 657.93 1016.73 659.547C1016.71 661.163 1018 662.492 1019.62 662.513L1032.76 662.686C1034.65 662.711 1036.17 664.271 1036.15 666.167C1036.12 668.065 1034.56 669.583 1032.67 669.558L1015.28 669.329C1013.47 669.305 1011.98 670.755 1011.96 672.568C1011.93 674.381 1013.38 675.869 1015.19 675.894L1020.52 675.964C1022.12 675.985 1023.4 677.299 1023.38 678.897C1023.36 680.495 1022.04 681.774 1020.45 681.752L1016.42 681.699C1013.45 681.66 1011.01 684.037 1010.97 687.009C1002.42 680.521 996.952 670.2 997.105 658.643C997.36 639.312 1013.24 623.849 1032.57 624.104C1032.52 627.432 1029.79 630.095 1026.46 630.051L1022.3 629.996C1020.6 629.97 1019.21 631.323 1019.19 633.014Z" fill="#0D7B1D"/>
<defs>
<filter id="filter0_f_166_292" x="1208.22" y="309.224" width="501.043" height="501.043" filterUnits="userSpaceOnUse" color-interpolation-filters="sRGB">
<feFlood flood-opacity="0" result="BackgroundImageFix"/>
<feBlend mode="normal" in="SourceGraphic" in2="BackgroundImageFix" result="shape"/>
<feGaussianBlur stdDeviation="25" result="effect1_foregroundBlur_166_292"/>
</filter>
</defs>
</svg>
