<svg width="1424" height="1117" viewBox="0 0 1424 1117" fill="none" xmlns="http://www.w3.org/2000/svg">
<circle cx="1389" cy="560" r="1387.5" stroke="white" stroke-width="3" stroke-dasharray="6 6"/>
<circle cx="1389" cy="560" r="1147.5" stroke="white" stroke-width="3" stroke-dasharray="6 6"/>
<circle cx="1389" cy="560" r="954.5" stroke="white" stroke-width="3" stroke-dasharray="6 6"/>
<circle cx="1389" cy="560" r="287.5" stroke="white" stroke-width="3" stroke-dasharray="6 6"/>
<circle cx="1389" cy="560" r="440.5" stroke="white" stroke-width="3" stroke-dasharray="6 6"/>
<circle cx="1389" cy="560" r="558.5" stroke="white" stroke-width="3" stroke-dasharray="6 6"/>
<circle cx="1389" cy="560" r="687.5" stroke="white" stroke-width="3" stroke-dasharray="6 6"/>
<circle cx="1367" cy="560" r="780.5" stroke="white" stroke-width="3" stroke-dasharray="6 6"/>
<path opacity="0.1" d="M1677.79 766.446C1681.61 761.114 1685.29 755.691 1688.81 750.163C1688.95 749.933 1689.08 749.697 1689.22 749.474C1692.46 744.366 1695.54 739.165 1698.51 733.893C1699.32 732.444 1700.09 730.968 1700.89 729.506C1703.14 725.374 1705.32 721.21 1707.41 716.993C1708.27 715.243 1709.11 713.485 1709.95 711.728C1711.9 707.622 1713.76 703.471 1715.56 699.294C1716.3 697.556 1717.05 695.832 1717.77 694.087C1719.68 689.444 1721.47 684.742 1723.17 680.014C1723.62 678.762 1724.12 677.529 1724.55 676.276C1726.68 670.158 1728.67 663.987 1730.47 657.751C1730.54 657.508 1730.59 657.265 1730.66 657.023C1732.32 651.193 1733.82 645.31 1735.19 639.395C1735.6 637.612 1735.94 635.808 1736.34 634.018C1737.29 629.585 1738.17 625.132 1738.95 620.653C1739.33 618.515 1739.66 616.371 1740 614.22C1740.67 609.957 1741.24 605.675 1741.76 601.386C1742.01 599.222 1742.27 597.065 1742.49 594.901C1742.95 590.278 1743.29 585.641 1743.56 580.992C1743.67 579.208 1743.82 577.431 1743.91 575.641C1744.19 569.188 1744.33 562.709 1744.26 556.21C1744.26 555.856 1744.23 555.502 1744.22 555.141C1744.14 549.062 1743.88 542.963 1743.48 536.858C1743.35 534.792 1743.12 532.72 1742.95 530.654C1742.57 526.215 1742.15 521.775 1741.6 517.329C1741.31 514.935 1740.97 512.548 1740.63 510.155C1740.03 505.945 1739.35 501.748 1738.59 497.538C1738.16 495.131 1737.72 492.731 1737.23 490.324C1736.34 485.878 1735.32 481.445 1734.24 477.005C1733.74 474.92 1733.29 472.834 1732.74 470.756C1731.05 464.29 1729.22 457.83 1727.15 451.39C1727.14 451.377 1727.14 451.364 1727.13 451.351C1715.88 416.444 1699.72 384.481 1679.67 355.988C1666.3 336.997 1651.19 319.533 1634.66 303.775C1622.25 291.951 1609.04 281.085 1595.15 271.235C1585.89 264.671 1576.33 258.552 1566.51 252.913C1551.76 244.447 1536.43 237.043 1520.61 230.761C1446.84 201.447 1362.81 196.64 1281.36 222.891C1095.17 282.895 992.885 482.468 1052.89 668.65C1112.9 854.831 1312.49 957.113 1498.68 897.109C1573.56 872.977 1634.84 826.233 1677.48 766.905C1677.48 766.918 1677.49 766.918 1677.5 766.931C1677.58 766.774 1677.68 766.603 1677.79 766.446Z" fill="#FF6C22"/>
<path opacity="0.05" d="M1740.97 811.763C1745.63 805.261 1750.11 798.648 1754.4 791.906C1754.57 791.626 1754.74 791.338 1754.91 791.066C1758.85 784.836 1762.61 778.494 1766.23 772.065C1767.22 770.297 1768.16 768.498 1769.13 766.714C1771.88 761.676 1774.54 756.598 1777.08 751.455C1778.14 749.32 1779.16 747.177 1780.19 745.034C1782.56 740.027 1784.83 734.965 1787.02 729.871C1787.93 727.752 1788.85 725.648 1789.72 723.521C1792.05 717.859 1794.23 712.125 1796.3 706.359C1796.85 704.831 1797.46 703.328 1797.99 701.8C1800.59 694.339 1803.01 686.813 1805.2 679.208C1805.29 678.912 1805.35 678.616 1805.43 678.32C1807.47 671.211 1809.29 664.037 1810.96 656.824C1811.46 654.648 1811.88 652.449 1812.36 650.266C1813.52 644.86 1814.6 639.429 1815.55 633.967C1816.02 631.36 1816.42 628.745 1816.83 626.122C1817.65 620.924 1818.34 615.702 1818.97 610.471C1819.28 607.832 1819.6 605.201 1819.86 602.562C1820.42 596.924 1820.84 591.27 1821.17 585.6C1821.31 583.424 1821.49 581.257 1821.6 579.074C1821.94 571.205 1822.11 563.303 1822.03 555.378C1822.02 554.946 1821.99 554.514 1821.98 554.074C1821.88 546.661 1821.56 539.223 1821.07 531.778C1820.91 529.259 1820.64 526.732 1820.43 524.213C1819.97 518.798 1819.45 513.384 1818.78 507.962C1818.43 505.043 1818.01 502.132 1817.6 499.213C1816.86 494.079 1816.03 488.96 1815.11 483.826C1814.58 480.891 1814.05 477.964 1813.46 475.029C1812.36 469.607 1811.12 464.201 1809.81 458.787C1809.19 456.244 1808.64 453.7 1807.98 451.165C1805.91 443.28 1803.68 435.403 1801.16 427.549C1801.15 427.533 1801.15 427.517 1801.14 427.501C1787.42 384.932 1767.71 345.953 1743.25 311.205C1726.95 288.045 1708.53 266.748 1688.36 247.53C1673.23 233.111 1657.13 219.86 1640.19 207.848C1628.89 199.843 1617.23 192.381 1605.25 185.503C1587.27 175.179 1568.57 166.15 1549.29 158.489C1459.32 122.741 1356.85 116.879 1257.51 148.892C1030.45 222.067 905.713 465.448 978.892 692.5C1052.07 919.55 1295.47 1044.28 1522.53 971.109C1613.86 941.679 1688.59 884.674 1740.59 812.323C1740.59 812.339 1740.6 812.339 1740.61 812.355C1740.71 812.163 1740.83 811.955 1740.97 811.763Z" fill="#FF6C22"/>
<path opacity="0.03" d="M1816.94 866.262C1822.61 858.353 1828.06 850.308 1833.28 842.107C1833.49 841.766 1833.69 841.416 1833.9 841.085C1838.69 833.507 1843.27 825.792 1847.67 817.97C1848.88 815.82 1850.02 813.631 1851.2 811.462C1854.54 805.333 1857.78 799.155 1860.87 792.9C1862.16 790.302 1863.4 787.695 1864.65 785.088C1867.54 778.998 1870.3 772.84 1872.97 766.643C1874.07 764.065 1875.19 761.506 1876.25 758.918C1879.08 752.031 1881.73 745.055 1884.25 738.041C1884.92 736.183 1885.66 734.354 1886.31 732.496C1889.47 723.419 1892.42 714.265 1895.08 705.013C1895.19 704.653 1895.27 704.293 1895.36 703.933C1897.84 695.285 1900.05 686.558 1902.09 677.783C1902.7 675.137 1903.21 672.462 1903.79 669.806C1905.2 663.229 1906.51 656.624 1907.67 649.979C1908.24 646.808 1908.72 643.626 1909.23 640.435C1910.22 634.112 1911.07 627.759 1911.83 621.397C1912.2 618.186 1912.59 614.986 1912.92 611.775C1913.6 604.917 1914.1 598.039 1914.51 591.141C1914.68 588.495 1914.9 585.859 1915.03 583.203C1915.44 573.63 1915.65 564.018 1915.55 554.377C1915.54 553.852 1915.5 553.327 1915.49 552.792C1915.37 543.773 1914.98 534.726 1914.38 525.669C1914.19 522.604 1913.86 519.53 1913.61 516.466C1913.04 509.879 1912.41 503.293 1911.6 496.697C1911.17 493.146 1910.66 489.605 1910.16 486.054C1909.27 479.809 1908.25 473.583 1907.14 467.337C1906.49 463.767 1905.84 460.206 1905.12 456.636C1903.79 450.04 1902.28 443.463 1900.69 436.877C1899.94 433.783 1899.27 430.69 1898.46 427.606C1895.95 418.014 1893.23 408.431 1890.16 398.878C1890.15 398.858 1890.15 398.839 1890.14 398.819C1873.44 347.035 1849.47 299.618 1819.72 257.348C1799.88 229.174 1777.48 203.267 1752.95 179.89C1734.54 162.349 1714.95 146.229 1694.35 131.617C1680.61 121.879 1666.42 112.802 1651.85 104.436C1629.98 91.8764 1607.22 80.893 1583.77 71.5731C1474.33 28.0869 1349.67 20.9559 1228.84 59.899C952.621 148.914 800.88 444.981 889.899 721.182C978.919 997.383 1275.01 1149.12 1551.22 1060.1C1662.32 1024.3 1753.22 954.957 1816.48 866.943C1816.48 866.963 1816.49 866.963 1816.5 866.982C1816.63 866.749 1816.77 866.496 1816.94 866.262Z" fill="#FF6C22"/>
<path opacity="0.02" d="M1961.88 970.234C1969.48 959.639 1976.77 948.863 1983.77 937.877C1984.05 937.421 1984.32 936.952 1984.59 936.509C1991.02 926.358 1997.14 916.024 2003.05 905.547C2004.66 902.667 2006.19 899.735 2007.78 896.829C2012.25 888.62 2016.59 880.345 2020.73 871.966C2022.45 868.487 2024.12 864.994 2025.79 861.502C2029.66 853.344 2033.36 845.096 2036.93 836.795C2038.4 833.341 2039.9 829.914 2041.32 826.448C2045.11 817.222 2048.67 807.879 2052.04 798.483C2052.94 795.994 2053.93 793.544 2054.79 791.055C2059.03 778.897 2062.98 766.635 2066.55 754.243C2066.69 753.76 2066.8 753.278 2066.93 752.796C2070.24 741.211 2073.21 729.523 2075.93 717.768C2076.75 714.224 2077.43 710.64 2078.21 707.083C2080.1 698.274 2081.86 689.426 2083.41 680.526C2084.17 676.277 2084.82 672.016 2085.5 667.742C2086.83 659.272 2087.96 650.762 2088.99 642.24C2089.48 637.94 2090.01 633.653 2090.44 629.352C2091.35 620.165 2092.03 610.952 2092.57 601.713C2092.79 598.169 2093.09 594.637 2093.26 591.08C2093.82 578.257 2094.1 565.382 2093.97 552.469C2093.95 551.765 2093.9 551.061 2093.89 550.344C2093.72 538.265 2093.2 526.146 2092.4 514.014C2092.14 509.909 2091.7 505.791 2091.36 501.686C2090.61 492.864 2089.76 484.042 2088.68 475.207C2088.1 470.451 2087.41 465.707 2086.75 460.951C2085.55 452.585 2084.19 444.245 2082.7 435.879C2081.84 431.097 2080.96 426.327 2080 421.545C2078.21 412.71 2076.19 403.901 2074.06 395.079C2073.05 390.935 2072.15 386.791 2071.07 382.66C2067.71 369.811 2064.07 356.976 2059.95 344.179C2059.94 344.153 2059.94 344.127 2059.93 344.101C2037.57 274.736 2005.46 211.223 1965.61 154.602C1939.03 116.864 1909.02 82.1622 1876.17 50.8484C1851.51 27.3533 1825.27 5.76071 1797.67 -13.812C1779.26 -26.8562 1760.26 -39.0143 1740.74 -50.2211C1711.45 -67.0442 1680.97 -81.7564 1649.55 -94.2402C1502.95 -152.489 1335.98 -162.041 1174.12 -109.878C804.138 9.35727 600.882 405.934 720.123 775.9C839.363 1145.87 1235.97 1349.11 1605.96 1229.88C1754.76 1181.92 1876.53 1089.04 1961.27 971.146C1961.27 971.172 1961.28 971.172 1961.29 971.198C1961.46 970.885 1961.66 970.546 1961.88 970.234Z" fill="#FF6C22"/>
<path opacity="0.1" d="M1609.57 717.87C1612.49 713.793 1615.3 709.646 1617.99 705.419C1618.1 705.243 1618.2 705.062 1618.31 704.892C1620.78 700.985 1623.14 697.009 1625.41 692.977C1626.03 691.869 1626.62 690.74 1627.23 689.622C1628.95 686.463 1630.62 683.278 1632.22 680.054C1632.88 678.715 1633.52 677.371 1634.16 676.027C1635.65 672.888 1637.07 669.713 1638.45 666.519C1639.02 665.19 1639.59 663.871 1640.14 662.537C1641.6 658.987 1642.97 655.391 1644.27 651.776C1644.61 650.818 1644.99 649.875 1645.32 648.917C1646.95 644.238 1648.47 639.519 1649.85 634.75C1649.9 634.565 1649.94 634.379 1649.99 634.194C1651.27 629.736 1652.41 625.237 1653.46 620.714C1653.77 619.35 1654.04 617.971 1654.34 616.602C1655.06 613.212 1655.74 609.807 1656.34 606.382C1656.63 604.747 1656.88 603.107 1657.14 601.462C1657.65 598.203 1658.09 594.928 1658.48 591.648C1658.67 589.994 1658.88 588.344 1659.04 586.689C1659.39 583.153 1659.65 579.608 1659.86 576.053C1659.95 574.688 1660.06 573.329 1660.13 571.96C1660.34 567.026 1660.45 562.071 1660.4 557.102C1660.39 556.831 1660.37 556.56 1660.37 556.284C1660.3 551.636 1660.1 546.972 1659.8 542.303C1659.7 540.723 1659.53 539.139 1659.4 537.559C1659.11 534.164 1658.78 530.769 1658.36 527.369C1658.14 525.539 1657.88 523.713 1657.62 521.883C1657.16 518.663 1656.64 515.454 1656.06 512.235C1655.73 510.394 1655.39 508.559 1655.02 506.718C1654.34 503.318 1653.56 499.928 1652.74 496.533C1652.35 494.939 1652 493.344 1651.59 491.754C1650.29 486.81 1648.9 481.87 1647.31 476.946C1647.31 476.936 1647.31 476.926 1647.3 476.916C1638.69 450.222 1626.34 425.78 1611 403.991C1600.78 389.468 1589.23 376.114 1576.58 364.063C1567.1 355.022 1557 346.712 1546.37 339.18C1539.29 334.16 1531.98 329.481 1524.47 325.169C1513.19 318.695 1501.46 313.033 1489.37 308.229C1432.96 285.813 1368.7 282.137 1306.42 302.211C1164.03 348.096 1085.82 500.711 1131.7 643.085C1177.59 785.459 1330.22 863.675 1472.6 817.79C1529.86 799.335 1576.72 763.59 1609.33 718.221C1609.33 718.231 1609.34 718.231 1609.34 718.241C1609.41 718.121 1609.48 717.991 1609.57 717.87Z" fill="#FF6C22"/>
<path opacity="0.1" d="M1572.09 690.621C1574.51 687.247 1576.83 683.816 1579.06 680.318C1579.15 680.173 1579.23 680.023 1579.32 679.882C1581.37 676.65 1583.32 673.36 1585.2 670.024C1585.71 669.107 1586.2 668.173 1586.7 667.248C1588.13 664.634 1589.51 661.999 1590.83 659.332C1591.38 658.224 1591.91 657.112 1592.44 656C1593.67 653.402 1594.85 650.776 1595.99 648.133C1596.45 647.033 1596.93 645.942 1597.38 644.838C1598.59 641.901 1599.72 638.926 1600.8 635.934C1601.08 635.142 1601.4 634.362 1601.67 633.569C1603.02 629.698 1604.28 625.794 1605.42 621.848C1605.46 621.694 1605.5 621.541 1605.54 621.387C1606.59 617.699 1607.54 613.977 1608.4 610.234C1608.67 609.106 1608.88 607.965 1609.13 606.832C1609.73 604.027 1610.29 601.21 1610.79 598.376C1611.03 597.023 1611.23 595.667 1611.45 594.306C1611.87 591.609 1612.23 588.899 1612.56 586.186C1612.72 584.816 1612.89 583.451 1613.02 582.082C1613.31 579.157 1613.53 576.223 1613.7 573.282C1613.77 572.153 1613.87 571.029 1613.92 569.896C1614.1 565.813 1614.19 561.714 1614.15 557.602C1614.14 557.378 1614.13 557.154 1614.12 556.926C1614.07 553.079 1613.9 549.221 1613.65 545.358C1613.57 544.051 1613.43 542.74 1613.32 541.433C1613.08 538.624 1612.81 535.815 1612.46 533.001C1612.28 531.487 1612.06 529.977 1611.85 528.462C1611.47 525.798 1611.03 523.143 1610.56 520.479C1610.28 518.956 1610.01 517.438 1609.7 515.915C1609.13 513.102 1608.49 510.297 1607.81 507.488C1607.49 506.169 1607.2 504.849 1606.86 503.534C1605.79 499.443 1604.63 495.356 1603.32 491.281C1603.31 491.273 1603.31 491.265 1603.31 491.257C1596.19 469.17 1585.96 448.947 1573.28 430.919C1564.82 418.903 1555.26 407.854 1544.8 397.883C1536.95 390.402 1528.59 383.527 1519.8 377.295C1513.94 373.142 1507.89 369.271 1501.68 365.702C1492.35 360.346 1482.65 355.661 1472.64 351.686C1425.96 333.14 1372.8 330.098 1321.26 346.707C1203.46 384.672 1138.74 510.944 1176.71 628.744C1214.67 746.543 1340.96 811.258 1458.76 773.293C1506.14 758.024 1544.91 728.449 1571.89 690.911C1571.89 690.919 1571.9 690.919 1571.9 690.928C1571.96 690.828 1572.02 690.72 1572.09 690.621Z" fill="#FF6C22"/>
<path opacity="0.1" d="M1547.31 672.848C1549.4 669.932 1551.41 666.968 1553.33 663.946C1553.41 663.825 1553.47 663.695 1553.56 663.569C1555.32 660.775 1557.01 657.933 1558.63 655.053C1559.08 654.258 1559.5 653.452 1559.93 652.657C1561.16 650.398 1562.36 648.119 1563.5 645.815C1563.97 644.858 1564.43 643.897 1564.89 642.936C1565.96 640.69 1566.97 638.427 1567.95 636.14C1568.36 635.191 1568.77 634.246 1569.16 633.293C1570.21 630.754 1571.18 628.183 1572.12 625.6C1572.36 624.915 1572.63 624.242 1572.87 623.556C1574.03 620.215 1575.12 616.841 1576.1 613.43C1576.14 613.297 1576.17 613.163 1576.21 613.033C1577.12 609.846 1577.94 606.63 1578.68 603.398C1578.91 602.42 1579.1 601.439 1579.31 600.454C1579.83 598.029 1580.31 595.6 1580.74 593.15C1580.95 591.978 1581.14 590.806 1581.32 589.634C1581.68 587.303 1582 584.967 1582.27 582.619C1582.41 581.439 1582.56 580.259 1582.68 579.075C1582.93 576.552 1583.11 574.018 1583.27 571.475C1583.32 570.498 1583.41 569.529 1583.45 568.547C1583.61 565.019 1583.69 561.479 1583.65 557.927C1583.65 557.732 1583.63 557.537 1583.63 557.343C1583.58 554.021 1583.44 550.688 1583.22 547.35C1583.14 546.219 1583.02 545.088 1582.93 543.96C1582.72 541.535 1582.49 539.106 1582.19 536.677C1582.03 535.367 1581.84 534.061 1581.66 532.752C1581.33 530.452 1580.95 528.157 1580.54 525.858C1580.3 524.544 1580.07 523.23 1579.8 521.912C1579.31 519.483 1578.75 517.058 1578.17 514.633C1577.89 513.493 1577.64 512.354 1577.34 511.218C1576.42 507.682 1575.41 504.15 1574.28 500.63C1574.28 500.63 1574.28 500.618 1574.28 500.61C1568.13 481.53 1559.29 464.056 1548.33 448.484C1541.02 438.103 1532.77 428.561 1523.73 419.943C1516.95 413.479 1509.73 407.538 1502.13 402.157C1497.07 398.568 1491.85 395.223 1486.48 392.137C1478.42 387.51 1470.03 383.462 1461.39 380.028C1421.07 364.005 1375.14 361.378 1330.61 375.725C1228.84 408.528 1172.93 517.622 1205.73 619.392C1238.53 721.162 1347.62 777.075 1449.4 744.272C1490.33 731.081 1523.82 705.529 1547.13 673.095C1547.13 673.095 1547.14 673.103 1547.14 673.111C1547.2 673.022 1547.25 672.929 1547.31 672.848Z" fill="#FF6C22"/>
<path opacity="0.1" d="M1520.48 653.602C1522.2 651.183 1523.87 648.725 1525.47 646.22C1525.53 646.115 1525.59 646.01 1525.66 645.905C1527.12 643.586 1528.52 641.229 1529.87 638.841C1530.24 638.183 1530.59 637.514 1530.94 636.853C1531.97 634.978 1532.96 633.092 1533.9 631.178C1534.3 630.385 1534.67 629.591 1535.06 628.79C1535.94 626.927 1536.78 625.048 1537.59 623.154C1537.93 622.368 1538.27 621.586 1538.6 620.792C1539.46 618.684 1540.27 616.557 1541.05 614.413C1541.25 613.845 1541.47 613.285 1541.67 612.717C1542.64 609.944 1543.54 607.147 1544.35 604.319C1544.38 604.211 1544.41 604.098 1544.44 603.989C1545.2 601.348 1545.87 598.679 1546.5 595.995C1546.68 595.186 1546.84 594.37 1547.02 593.557C1547.44 591.546 1547.85 589.527 1548.21 587.496C1548.37 586.528 1548.53 585.555 1548.68 584.583C1548.98 582.65 1549.25 580.709 1549.48 578.76C1549.59 577.784 1549.71 576.803 1549.81 575.819C1550.02 573.727 1550.17 571.622 1550.3 569.514C1550.35 568.705 1550.41 567.9 1550.45 567.087C1550.58 564.158 1550.65 561.225 1550.61 558.277C1550.61 558.113 1550.6 557.954 1550.6 557.79C1550.56 555.037 1550.44 552.271 1550.25 549.501C1550.19 548.564 1550.09 547.627 1550.02 546.689C1549.85 544.678 1549.65 542.663 1549.41 540.648C1549.27 539.563 1549.12 538.478 1548.97 537.393C1548.69 535.487 1548.39 533.581 1548.04 531.675C1547.84 530.586 1547.64 529.493 1547.43 528.404C1547.02 526.393 1546.55 524.378 1546.07 522.367C1545.84 521.421 1545.64 520.476 1545.39 519.531C1544.62 516.602 1543.79 513.673 1542.85 510.752L1542.84 510.736C1537.74 494.909 1530.42 480.42 1521.33 467.502C1515.26 458.89 1508.41 450.978 1500.92 443.833C1495.29 438.473 1489.31 433.545 1483.01 429.083C1478.81 426.104 1474.47 423.33 1470.01 420.775C1463.33 416.936 1456.38 413.579 1449.21 410.731C1415.76 397.444 1377.67 395.262 1340.74 407.165C1256.33 434.369 1209.96 524.852 1237.16 609.259C1264.37 693.67 1354.85 740.04 1439.26 712.835C1473.21 701.893 1500.99 680.702 1520.32 653.801L1520.33 653.812C1520.38 653.746 1520.43 653.672 1520.48 653.602Z" fill="#FF6C22"/>
<g filter="url(#filter0_f_164_185)">
<path d="M1580.55 498.248C1614.51 603.629 1556.62 716.582 1451.24 750.547C1345.87 784.513 1232.91 726.619 1198.94 621.244C1164.98 515.863 1222.87 402.909 1328.25 368.944C1433.63 334.979 1546.59 392.872 1580.55 498.248Z" fill="#FF6C22" fill-opacity="0.3"/>
</g>
<path d="M1527.11 515.639C1551.54 591.436 1509.9 672.68 1434.11 697.109C1358.31 721.539 1277.07 679.899 1252.64 604.106C1228.21 528.309 1269.84 447.066 1345.64 422.636C1421.44 398.206 1502.68 439.847 1527.11 515.639Z" fill="#FF6C22"/>
<defs>
<filter id="filter0_f_164_185" x="1139.22" y="309.224" width="501.043" height="501.043" filterUnits="userSpaceOnUse" color-interpolation-filters="sRGB">
<feFlood flood-opacity="0" result="BackgroundImageFix"/>
<feBlend mode="normal" in="SourceGraphic" in2="BackgroundImageFix" result="shape"/>
<feGaussianBlur stdDeviation="25" result="effect1_foregroundBlur_164_185"/>
</filter>
</defs>
</svg>
